<mxfile host="app.diagrams.net" modified="2022-05-04T12:00:36.172Z" agent="5.0 (Macintosh; Intel Mac OS X 10_15_7) AppleWebKit/537.36 (KHTML, like Gecko) Chrome/100.0.4896.127 Safari/537.36" etag="A9WaX76u5tp2bN58gMuR" version="17.5.0" type="github">
  <diagram id="smbejUXae6J2oZbY5M-5" name="第 1 页">
    <mxGraphModel dx="932" dy="644" grid="1" gridSize="10" guides="1" tooltips="1" connect="1" arrows="1" fold="1" page="1" pageScale="1" pageWidth="827" pageHeight="1169" math="0" shadow="0">
      <root>
        <mxCell id="0" />
        <mxCell id="1" parent="0" />
        <mxCell id="2WSakZIg-niSuwnh4BM6-32" value="" style="group" vertex="1" connectable="0" parent="1">
          <mxGeometry x="139" y="80" width="564" height="240" as="geometry" />
        </mxCell>
        <mxCell id="2WSakZIg-niSuwnh4BM6-10" value="" style="group;fillColor=#a20025;fontColor=#ffffff;strokeColor=#6F0000;" vertex="1" connectable="0" parent="2WSakZIg-niSuwnh4BM6-32">
          <mxGeometry y="100" width="540" height="50" as="geometry" />
        </mxCell>
        <mxCell id="2WSakZIg-niSuwnh4BM6-1" value="&lt;font style=&quot;font-size: 32px&quot;&gt;10&lt;/font&gt;" style="rounded=0;whiteSpace=wrap;html=1;fillColor=#6a00ff;fontColor=#ffffff;strokeColor=#3700CC;" vertex="1" parent="2WSakZIg-niSuwnh4BM6-10">
          <mxGeometry width="60" height="50" as="geometry" />
        </mxCell>
        <mxCell id="2WSakZIg-niSuwnh4BM6-2" value="&lt;font style=&quot;font-size: 32px&quot;&gt;11&lt;/font&gt;" style="rounded=0;whiteSpace=wrap;html=1;fillColor=#6a00ff;fontColor=#ffffff;strokeColor=#3700CC;" vertex="1" parent="2WSakZIg-niSuwnh4BM6-10">
          <mxGeometry x="60" width="60" height="50" as="geometry" />
        </mxCell>
        <mxCell id="2WSakZIg-niSuwnh4BM6-3" value="&lt;font style=&quot;font-size: 32px&quot;&gt;12&lt;/font&gt;" style="rounded=0;whiteSpace=wrap;html=1;fillColor=#6a00ff;fontColor=#ffffff;strokeColor=#3700CC;" vertex="1" parent="2WSakZIg-niSuwnh4BM6-10">
          <mxGeometry x="120" width="60" height="50" as="geometry" />
        </mxCell>
        <mxCell id="2WSakZIg-niSuwnh4BM6-4" value="&lt;font style=&quot;font-size: 32px&quot;&gt;13&lt;/font&gt;" style="rounded=0;whiteSpace=wrap;html=1;fillColor=#6a00ff;fontColor=#ffffff;strokeColor=#3700CC;" vertex="1" parent="2WSakZIg-niSuwnh4BM6-10">
          <mxGeometry x="180" width="60" height="50" as="geometry" />
        </mxCell>
        <mxCell id="2WSakZIg-niSuwnh4BM6-5" value="&lt;font style=&quot;font-size: 32px&quot;&gt;14&lt;/font&gt;" style="rounded=0;whiteSpace=wrap;html=1;fillColor=#d80073;fontColor=#ffffff;strokeColor=#A50040;" vertex="1" parent="2WSakZIg-niSuwnh4BM6-10">
          <mxGeometry x="240" width="60" height="50" as="geometry" />
        </mxCell>
        <mxCell id="2WSakZIg-niSuwnh4BM6-6" value="&lt;font style=&quot;font-size: 32px&quot;&gt;15&lt;/font&gt;" style="rounded=0;whiteSpace=wrap;html=1;fillColor=#6a00ff;fontColor=#ffffff;strokeColor=#3700CC;" vertex="1" parent="2WSakZIg-niSuwnh4BM6-10">
          <mxGeometry x="300" width="60" height="50" as="geometry" />
        </mxCell>
        <mxCell id="2WSakZIg-niSuwnh4BM6-7" value="&lt;font style=&quot;font-size: 32px&quot;&gt;16&lt;/font&gt;" style="rounded=0;whiteSpace=wrap;html=1;fillColor=#6a00ff;fontColor=#ffffff;strokeColor=#3700CC;" vertex="1" parent="2WSakZIg-niSuwnh4BM6-10">
          <mxGeometry x="360" width="60" height="50" as="geometry" />
        </mxCell>
        <mxCell id="2WSakZIg-niSuwnh4BM6-8" value="&lt;font style=&quot;font-size: 32px&quot;&gt;17&lt;/font&gt;" style="rounded=0;whiteSpace=wrap;html=1;fillColor=#6a00ff;fontColor=#ffffff;strokeColor=#3700CC;" vertex="1" parent="2WSakZIg-niSuwnh4BM6-10">
          <mxGeometry x="420" width="60" height="50" as="geometry" />
        </mxCell>
        <mxCell id="2WSakZIg-niSuwnh4BM6-9" value="&lt;font style=&quot;font-size: 32px&quot;&gt;18&lt;/font&gt;" style="rounded=0;whiteSpace=wrap;html=1;fillColor=#6a00ff;fontColor=#ffffff;strokeColor=#3700CC;" vertex="1" parent="2WSakZIg-niSuwnh4BM6-10">
          <mxGeometry x="480" width="60" height="50" as="geometry" />
        </mxCell>
        <mxCell id="2WSakZIg-niSuwnh4BM6-11" value="" style="endArrow=classic;html=1;rounded=0;fontSize=32;strokeWidth=2;" edge="1" parent="2WSakZIg-niSuwnh4BM6-32">
          <mxGeometry width="50" height="50" relative="1" as="geometry">
            <mxPoint x="31" y="200" as="sourcePoint" />
            <mxPoint x="31" y="160" as="targetPoint" />
          </mxGeometry>
        </mxCell>
        <mxCell id="2WSakZIg-niSuwnh4BM6-12" value="" style="endArrow=classic;html=1;rounded=0;fontSize=32;strokeWidth=2;" edge="1" parent="2WSakZIg-niSuwnh4BM6-32">
          <mxGeometry width="50" height="50" relative="1" as="geometry">
            <mxPoint x="517" y="199" as="sourcePoint" />
            <mxPoint x="517" y="159" as="targetPoint" />
          </mxGeometry>
        </mxCell>
        <mxCell id="2WSakZIg-niSuwnh4BM6-13" value="low" style="text;html=1;align=center;verticalAlign=middle;resizable=0;points=[];autosize=1;strokeColor=none;fillColor=none;fontSize=32;" vertex="1" parent="2WSakZIg-niSuwnh4BM6-32">
          <mxGeometry y="200" width="60" height="40" as="geometry" />
        </mxCell>
        <mxCell id="2WSakZIg-niSuwnh4BM6-14" value="hight" style="text;html=1;align=center;verticalAlign=middle;resizable=0;points=[];autosize=1;strokeColor=none;fillColor=none;fontSize=32;" vertex="1" parent="2WSakZIg-niSuwnh4BM6-32">
          <mxGeometry x="474" y="200" width="90" height="40" as="geometry" />
        </mxCell>
        <mxCell id="2WSakZIg-niSuwnh4BM6-15" value="" style="endArrow=classic;html=1;rounded=0;fontSize=32;strokeWidth=2;" edge="1" parent="2WSakZIg-niSuwnh4BM6-32">
          <mxGeometry width="50" height="50" relative="1" as="geometry">
            <mxPoint x="271" y="50" as="sourcePoint" />
            <mxPoint x="271" y="90" as="targetPoint" />
          </mxGeometry>
        </mxCell>
        <mxCell id="2WSakZIg-niSuwnh4BM6-16" value="middle" style="text;html=1;align=center;verticalAlign=middle;resizable=0;points=[];autosize=1;strokeColor=none;fillColor=none;fontSize=32;" vertex="1" parent="2WSakZIg-niSuwnh4BM6-32">
          <mxGeometry x="215" width="110" height="40" as="geometry" />
        </mxCell>
        <mxCell id="2WSakZIg-niSuwnh4BM6-48" value="" style="endArrow=classic;html=1;rounded=0;fontSize=32;strokeWidth=2;" edge="1" parent="1">
          <mxGeometry width="50" height="50" relative="1" as="geometry">
            <mxPoint x="411" y="372" as="sourcePoint" />
            <mxPoint x="411" y="412" as="targetPoint" />
          </mxGeometry>
        </mxCell>
        <mxCell id="2WSakZIg-niSuwnh4BM6-49" value="middle" style="text;html=1;align=center;verticalAlign=middle;resizable=0;points=[];autosize=1;strokeColor=none;fillColor=none;fontSize=32;" vertex="1" parent="1">
          <mxGeometry x="355" y="322" width="110" height="40" as="geometry" />
        </mxCell>
        <mxCell id="2WSakZIg-niSuwnh4BM6-50" value="" style="group" vertex="1" connectable="0" parent="1">
          <mxGeometry x="140" y="422" width="564" height="148" as="geometry" />
        </mxCell>
        <mxCell id="2WSakZIg-niSuwnh4BM6-34" value="" style="group;fillColor=#a20025;fontColor=#ffffff;strokeColor=#6F0000;" vertex="1" connectable="0" parent="2WSakZIg-niSuwnh4BM6-50">
          <mxGeometry width="540" height="50" as="geometry" />
        </mxCell>
        <mxCell id="2WSakZIg-niSuwnh4BM6-35" value="&lt;font style=&quot;font-size: 32px&quot;&gt;10&lt;/font&gt;" style="rounded=0;whiteSpace=wrap;html=1;fillColor=#6a00ff;fontColor=#ffffff;strokeColor=#3700CC;" vertex="1" parent="2WSakZIg-niSuwnh4BM6-34">
          <mxGeometry width="60" height="50" as="geometry" />
        </mxCell>
        <mxCell id="2WSakZIg-niSuwnh4BM6-36" value="&lt;font style=&quot;font-size: 32px&quot;&gt;11&lt;/font&gt;" style="rounded=0;whiteSpace=wrap;html=1;fillColor=#6a00ff;fontColor=#ffffff;strokeColor=#3700CC;" vertex="1" parent="2WSakZIg-niSuwnh4BM6-34">
          <mxGeometry x="60" width="60" height="50" as="geometry" />
        </mxCell>
        <mxCell id="2WSakZIg-niSuwnh4BM6-37" value="&lt;font style=&quot;font-size: 32px&quot;&gt;12&lt;/font&gt;" style="rounded=0;whiteSpace=wrap;html=1;fillColor=#6a00ff;fontColor=#ffffff;strokeColor=#3700CC;" vertex="1" parent="2WSakZIg-niSuwnh4BM6-34">
          <mxGeometry x="120" width="60" height="50" as="geometry" />
        </mxCell>
        <mxCell id="2WSakZIg-niSuwnh4BM6-38" value="&lt;font style=&quot;font-size: 32px&quot;&gt;13&lt;/font&gt;" style="rounded=0;whiteSpace=wrap;html=1;fillColor=#6a00ff;fontColor=#ffffff;strokeColor=#3700CC;" vertex="1" parent="2WSakZIg-niSuwnh4BM6-34">
          <mxGeometry x="180" width="60" height="50" as="geometry" />
        </mxCell>
        <mxCell id="2WSakZIg-niSuwnh4BM6-39" value="&lt;font style=&quot;font-size: 32px&quot;&gt;14&lt;/font&gt;" style="rounded=0;whiteSpace=wrap;html=1;fillColor=#d80073;fontColor=#ffffff;strokeColor=#A50040;" vertex="1" parent="2WSakZIg-niSuwnh4BM6-34">
          <mxGeometry x="240" width="60" height="50" as="geometry" />
        </mxCell>
        <mxCell id="2WSakZIg-niSuwnh4BM6-40" value="&lt;font style=&quot;font-size: 32px&quot;&gt;15&lt;/font&gt;" style="rounded=0;whiteSpace=wrap;html=1;fillColor=#6a00ff;fontColor=#ffffff;strokeColor=#3700CC;" vertex="1" parent="2WSakZIg-niSuwnh4BM6-34">
          <mxGeometry x="300" width="60" height="50" as="geometry" />
        </mxCell>
        <mxCell id="2WSakZIg-niSuwnh4BM6-41" value="&lt;font style=&quot;font-size: 32px&quot;&gt;16&lt;/font&gt;" style="rounded=0;whiteSpace=wrap;html=1;fillColor=#e51400;fontColor=#ffffff;strokeColor=#B20000;" vertex="1" parent="2WSakZIg-niSuwnh4BM6-34">
          <mxGeometry x="360" width="60" height="50" as="geometry" />
        </mxCell>
        <mxCell id="2WSakZIg-niSuwnh4BM6-42" value="&lt;font style=&quot;font-size: 32px&quot;&gt;17&lt;/font&gt;" style="rounded=0;whiteSpace=wrap;html=1;fillColor=#6a00ff;fontColor=#ffffff;strokeColor=#3700CC;" vertex="1" parent="2WSakZIg-niSuwnh4BM6-34">
          <mxGeometry x="420" width="60" height="50" as="geometry" />
        </mxCell>
        <mxCell id="2WSakZIg-niSuwnh4BM6-43" value="&lt;font style=&quot;font-size: 32px&quot;&gt;18&lt;/font&gt;" style="rounded=0;whiteSpace=wrap;html=1;fillColor=#6a00ff;fontColor=#ffffff;strokeColor=#3700CC;" vertex="1" parent="2WSakZIg-niSuwnh4BM6-34">
          <mxGeometry x="480" width="60" height="50" as="geometry" />
        </mxCell>
        <mxCell id="2WSakZIg-niSuwnh4BM6-44" value="" style="endArrow=classic;html=1;rounded=0;fontSize=32;strokeWidth=2;" edge="1" parent="2WSakZIg-niSuwnh4BM6-50">
          <mxGeometry width="50" height="50" relative="1" as="geometry">
            <mxPoint x="31" y="100" as="sourcePoint" />
            <mxPoint x="31" y="60" as="targetPoint" />
          </mxGeometry>
        </mxCell>
        <mxCell id="2WSakZIg-niSuwnh4BM6-45" value="" style="endArrow=classic;html=1;rounded=0;fontSize=32;strokeWidth=2;" edge="1" parent="2WSakZIg-niSuwnh4BM6-50">
          <mxGeometry width="50" height="50" relative="1" as="geometry">
            <mxPoint x="517" y="99" as="sourcePoint" />
            <mxPoint x="517" y="59" as="targetPoint" />
          </mxGeometry>
        </mxCell>
        <mxCell id="2WSakZIg-niSuwnh4BM6-46" value="low" style="text;html=1;align=center;verticalAlign=middle;resizable=0;points=[];autosize=1;strokeColor=none;fillColor=none;fontSize=32;" vertex="1" parent="2WSakZIg-niSuwnh4BM6-50">
          <mxGeometry y="100" width="60" height="40" as="geometry" />
        </mxCell>
        <mxCell id="2WSakZIg-niSuwnh4BM6-47" value="hight" style="text;html=1;align=center;verticalAlign=middle;resizable=0;points=[];autosize=1;strokeColor=none;fillColor=none;fontSize=32;" vertex="1" parent="2WSakZIg-niSuwnh4BM6-50">
          <mxGeometry x="474" y="100" width="90" height="40" as="geometry" />
        </mxCell>
        <mxCell id="2WSakZIg-niSuwnh4BM6-51" value="" style="endArrow=classic;html=1;rounded=0;fontSize=32;strokeWidth=2;" edge="1" parent="2WSakZIg-niSuwnh4BM6-50">
          <mxGeometry width="50" height="50" relative="1" as="geometry">
            <mxPoint x="390" y="108" as="sourcePoint" />
            <mxPoint x="390" y="58" as="targetPoint" />
          </mxGeometry>
        </mxCell>
        <mxCell id="2WSakZIg-niSuwnh4BM6-52" value="N" style="text;html=1;strokeColor=none;fillColor=none;align=center;verticalAlign=middle;whiteSpace=wrap;rounded=0;fontSize=32;" vertex="1" parent="2WSakZIg-niSuwnh4BM6-50">
          <mxGeometry x="363" y="118" width="60" height="30" as="geometry" />
        </mxCell>
        <mxCell id="2WSakZIg-niSuwnh4BM6-53" value="14 &amp;lt; 16 ?" style="text;strokeColor=none;fillColor=none;html=1;fontSize=24;fontStyle=1;verticalAlign=middle;align=center;" vertex="1" parent="1">
          <mxGeometry x="360" y="610" width="100" height="40" as="geometry" />
        </mxCell>
        <mxCell id="2WSakZIg-niSuwnh4BM6-54" value="" style="endArrow=classic;html=1;rounded=0;fontSize=32;strokeWidth=2;" edge="1" parent="1">
          <mxGeometry width="50" height="50" relative="1" as="geometry">
            <mxPoint x="411" y="372" as="sourcePoint" />
            <mxPoint x="411" y="412" as="targetPoint" />
          </mxGeometry>
        </mxCell>
        <mxCell id="2WSakZIg-niSuwnh4BM6-55" value="" style="group" vertex="1" connectable="0" parent="1">
          <mxGeometry x="140" y="422" width="564" height="148" as="geometry" />
        </mxCell>
        <mxCell id="2WSakZIg-niSuwnh4BM6-56" value="" style="group;fillColor=#a20025;fontColor=#ffffff;strokeColor=#6F0000;" vertex="1" connectable="0" parent="2WSakZIg-niSuwnh4BM6-55">
          <mxGeometry width="540" height="50" as="geometry" />
        </mxCell>
        <mxCell id="2WSakZIg-niSuwnh4BM6-57" value="&lt;font style=&quot;font-size: 32px&quot;&gt;10&lt;/font&gt;" style="rounded=0;whiteSpace=wrap;html=1;fillColor=#6a00ff;fontColor=#ffffff;strokeColor=#3700CC;" vertex="1" parent="2WSakZIg-niSuwnh4BM6-56">
          <mxGeometry width="60" height="50" as="geometry" />
        </mxCell>
        <mxCell id="2WSakZIg-niSuwnh4BM6-58" value="&lt;font style=&quot;font-size: 32px&quot;&gt;11&lt;/font&gt;" style="rounded=0;whiteSpace=wrap;html=1;fillColor=#6a00ff;fontColor=#ffffff;strokeColor=#3700CC;" vertex="1" parent="2WSakZIg-niSuwnh4BM6-56">
          <mxGeometry x="60" width="60" height="50" as="geometry" />
        </mxCell>
        <mxCell id="2WSakZIg-niSuwnh4BM6-59" value="&lt;font style=&quot;font-size: 32px&quot;&gt;12&lt;/font&gt;" style="rounded=0;whiteSpace=wrap;html=1;fillColor=#6a00ff;fontColor=#ffffff;strokeColor=#3700CC;" vertex="1" parent="2WSakZIg-niSuwnh4BM6-56">
          <mxGeometry x="120" width="60" height="50" as="geometry" />
        </mxCell>
        <mxCell id="2WSakZIg-niSuwnh4BM6-60" value="&lt;font style=&quot;font-size: 32px&quot;&gt;13&lt;/font&gt;" style="rounded=0;whiteSpace=wrap;html=1;fillColor=#6a00ff;fontColor=#ffffff;strokeColor=#3700CC;" vertex="1" parent="2WSakZIg-niSuwnh4BM6-56">
          <mxGeometry x="180" width="60" height="50" as="geometry" />
        </mxCell>
        <mxCell id="2WSakZIg-niSuwnh4BM6-61" value="&lt;font style=&quot;font-size: 32px&quot;&gt;14&lt;/font&gt;" style="rounded=0;whiteSpace=wrap;html=1;fillColor=#d80073;fontColor=#ffffff;strokeColor=#A50040;" vertex="1" parent="2WSakZIg-niSuwnh4BM6-56">
          <mxGeometry x="240" width="60" height="50" as="geometry" />
        </mxCell>
        <mxCell id="2WSakZIg-niSuwnh4BM6-62" value="&lt;font style=&quot;font-size: 32px&quot;&gt;15&lt;/font&gt;" style="rounded=0;whiteSpace=wrap;html=1;fillColor=#6a00ff;fontColor=#ffffff;strokeColor=#3700CC;" vertex="1" parent="2WSakZIg-niSuwnh4BM6-56">
          <mxGeometry x="300" width="60" height="50" as="geometry" />
        </mxCell>
        <mxCell id="2WSakZIg-niSuwnh4BM6-63" value="&lt;font style=&quot;font-size: 32px&quot;&gt;16&lt;/font&gt;" style="rounded=0;whiteSpace=wrap;html=1;fillColor=#e51400;fontColor=#ffffff;strokeColor=#B20000;" vertex="1" parent="2WSakZIg-niSuwnh4BM6-56">
          <mxGeometry x="360" width="60" height="50" as="geometry" />
        </mxCell>
        <mxCell id="2WSakZIg-niSuwnh4BM6-64" value="&lt;font style=&quot;font-size: 32px&quot;&gt;17&lt;/font&gt;" style="rounded=0;whiteSpace=wrap;html=1;fillColor=#6a00ff;fontColor=#ffffff;strokeColor=#3700CC;" vertex="1" parent="2WSakZIg-niSuwnh4BM6-56">
          <mxGeometry x="420" width="60" height="50" as="geometry" />
        </mxCell>
        <mxCell id="2WSakZIg-niSuwnh4BM6-65" value="&lt;font style=&quot;font-size: 32px&quot;&gt;18&lt;/font&gt;" style="rounded=0;whiteSpace=wrap;html=1;fillColor=#6a00ff;fontColor=#ffffff;strokeColor=#3700CC;" vertex="1" parent="2WSakZIg-niSuwnh4BM6-56">
          <mxGeometry x="480" width="60" height="50" as="geometry" />
        </mxCell>
        <mxCell id="2WSakZIg-niSuwnh4BM6-66" value="" style="endArrow=classic;html=1;rounded=0;fontSize=32;strokeWidth=2;" edge="1" parent="2WSakZIg-niSuwnh4BM6-55">
          <mxGeometry width="50" height="50" relative="1" as="geometry">
            <mxPoint x="31" y="100" as="sourcePoint" />
            <mxPoint x="31" y="60" as="targetPoint" />
          </mxGeometry>
        </mxCell>
        <mxCell id="2WSakZIg-niSuwnh4BM6-67" value="" style="endArrow=classic;html=1;rounded=0;fontSize=32;strokeWidth=2;" edge="1" parent="2WSakZIg-niSuwnh4BM6-55">
          <mxGeometry width="50" height="50" relative="1" as="geometry">
            <mxPoint x="517" y="99" as="sourcePoint" />
            <mxPoint x="517" y="59" as="targetPoint" />
          </mxGeometry>
        </mxCell>
        <mxCell id="2WSakZIg-niSuwnh4BM6-68" value="low" style="text;html=1;align=center;verticalAlign=middle;resizable=0;points=[];autosize=1;strokeColor=none;fillColor=none;fontSize=32;" vertex="1" parent="2WSakZIg-niSuwnh4BM6-55">
          <mxGeometry y="100" width="60" height="40" as="geometry" />
        </mxCell>
        <mxCell id="2WSakZIg-niSuwnh4BM6-69" value="hight" style="text;html=1;align=center;verticalAlign=middle;resizable=0;points=[];autosize=1;strokeColor=none;fillColor=none;fontSize=32;" vertex="1" parent="2WSakZIg-niSuwnh4BM6-55">
          <mxGeometry x="474" y="100" width="90" height="40" as="geometry" />
        </mxCell>
        <mxCell id="2WSakZIg-niSuwnh4BM6-70" value="" style="endArrow=classic;html=1;rounded=0;fontSize=32;strokeWidth=2;" edge="1" parent="2WSakZIg-niSuwnh4BM6-55">
          <mxGeometry width="50" height="50" relative="1" as="geometry">
            <mxPoint x="390" y="108" as="sourcePoint" />
            <mxPoint x="390" y="58" as="targetPoint" />
          </mxGeometry>
        </mxCell>
        <mxCell id="2WSakZIg-niSuwnh4BM6-71" value="N" style="text;html=1;strokeColor=none;fillColor=none;align=center;verticalAlign=middle;whiteSpace=wrap;rounded=0;fontSize=32;" vertex="1" parent="2WSakZIg-niSuwnh4BM6-55">
          <mxGeometry x="363" y="118" width="60" height="30" as="geometry" />
        </mxCell>
        <mxCell id="2WSakZIg-niSuwnh4BM6-108" value="" style="rounded=0;whiteSpace=wrap;html=1;fontSize=32;fillColor=none;dashed=1;strokeWidth=3;" vertex="1" parent="1">
          <mxGeometry x="372" y="660" width="368" height="230" as="geometry" />
        </mxCell>
        <mxCell id="2WSakZIg-niSuwnh4BM6-73" value="" style="group" vertex="1" connectable="0" parent="1">
          <mxGeometry x="132" y="730" width="564" height="148" as="geometry" />
        </mxCell>
        <mxCell id="2WSakZIg-niSuwnh4BM6-74" value="" style="group;fillColor=#a20025;fontColor=#ffffff;strokeColor=#6F0000;" vertex="1" connectable="0" parent="2WSakZIg-niSuwnh4BM6-73">
          <mxGeometry width="540" height="50" as="geometry" />
        </mxCell>
        <mxCell id="2WSakZIg-niSuwnh4BM6-75" value="&lt;font style=&quot;font-size: 32px&quot;&gt;10&lt;/font&gt;" style="rounded=0;whiteSpace=wrap;html=1;fillColor=#6a00ff;fontColor=#ffffff;strokeColor=#3700CC;container=0;" vertex="1" parent="2WSakZIg-niSuwnh4BM6-74">
          <mxGeometry width="60" height="50" as="geometry" />
        </mxCell>
        <mxCell id="2WSakZIg-niSuwnh4BM6-76" value="&lt;font style=&quot;font-size: 32px&quot;&gt;11&lt;/font&gt;" style="rounded=0;whiteSpace=wrap;html=1;fillColor=#6a00ff;fontColor=#ffffff;strokeColor=#3700CC;container=0;" vertex="1" parent="2WSakZIg-niSuwnh4BM6-74">
          <mxGeometry x="60" width="60" height="50" as="geometry" />
        </mxCell>
        <mxCell id="2WSakZIg-niSuwnh4BM6-77" value="&lt;font style=&quot;font-size: 32px&quot;&gt;12&lt;/font&gt;" style="rounded=0;whiteSpace=wrap;html=1;fillColor=#6a00ff;fontColor=#ffffff;strokeColor=#3700CC;container=0;" vertex="1" parent="2WSakZIg-niSuwnh4BM6-74">
          <mxGeometry x="120" width="60" height="50" as="geometry" />
        </mxCell>
        <mxCell id="2WSakZIg-niSuwnh4BM6-78" value="&lt;font style=&quot;font-size: 32px&quot;&gt;13&lt;/font&gt;" style="rounded=0;whiteSpace=wrap;html=1;fillColor=#6a00ff;fontColor=#ffffff;strokeColor=#3700CC;container=0;" vertex="1" parent="2WSakZIg-niSuwnh4BM6-74">
          <mxGeometry x="180" width="60" height="50" as="geometry" />
        </mxCell>
        <mxCell id="2WSakZIg-niSuwnh4BM6-79" value="&lt;font style=&quot;font-size: 32px&quot;&gt;14&lt;/font&gt;" style="rounded=0;whiteSpace=wrap;html=1;fillColor=#d80073;fontColor=#ffffff;strokeColor=#A50040;" vertex="1" parent="2WSakZIg-niSuwnh4BM6-74">
          <mxGeometry x="240" width="60" height="50" as="geometry" />
        </mxCell>
        <mxCell id="2WSakZIg-niSuwnh4BM6-80" value="&lt;font style=&quot;font-size: 32px&quot;&gt;15&lt;/font&gt;" style="rounded=0;whiteSpace=wrap;html=1;fillColor=#6a00ff;fontColor=#ffffff;strokeColor=#3700CC;" vertex="1" parent="2WSakZIg-niSuwnh4BM6-74">
          <mxGeometry x="300" width="60" height="50" as="geometry" />
        </mxCell>
        <mxCell id="2WSakZIg-niSuwnh4BM6-81" value="&lt;font style=&quot;font-size: 32px&quot;&gt;16&lt;/font&gt;" style="rounded=0;whiteSpace=wrap;html=1;fillColor=#e51400;fontColor=#ffffff;strokeColor=#B20000;" vertex="1" parent="2WSakZIg-niSuwnh4BM6-74">
          <mxGeometry x="360" width="60" height="50" as="geometry" />
        </mxCell>
        <mxCell id="2WSakZIg-niSuwnh4BM6-82" value="&lt;font style=&quot;font-size: 32px&quot;&gt;17&lt;/font&gt;" style="rounded=0;whiteSpace=wrap;html=1;fillColor=#6a00ff;fontColor=#ffffff;strokeColor=#3700CC;" vertex="1" parent="2WSakZIg-niSuwnh4BM6-74">
          <mxGeometry x="420" width="60" height="50" as="geometry" />
        </mxCell>
        <mxCell id="2WSakZIg-niSuwnh4BM6-83" value="&lt;font style=&quot;font-size: 32px&quot;&gt;18&lt;/font&gt;" style="rounded=0;whiteSpace=wrap;html=1;fillColor=#6a00ff;fontColor=#ffffff;strokeColor=#3700CC;" vertex="1" parent="2WSakZIg-niSuwnh4BM6-74">
          <mxGeometry x="480" width="60" height="50" as="geometry" />
        </mxCell>
        <mxCell id="2WSakZIg-niSuwnh4BM6-84" value="" style="endArrow=classic;html=1;rounded=0;fontSize=32;strokeWidth=2;" edge="1" parent="2WSakZIg-niSuwnh4BM6-73">
          <mxGeometry width="50" height="50" relative="1" as="geometry">
            <mxPoint x="329" y="108" as="sourcePoint" />
            <mxPoint x="329" y="68" as="targetPoint" />
          </mxGeometry>
        </mxCell>
        <mxCell id="2WSakZIg-niSuwnh4BM6-85" value="" style="endArrow=classic;html=1;rounded=0;fontSize=32;strokeWidth=2;" edge="1" parent="2WSakZIg-niSuwnh4BM6-73">
          <mxGeometry width="50" height="50" relative="1" as="geometry">
            <mxPoint x="517" y="99" as="sourcePoint" />
            <mxPoint x="517" y="59" as="targetPoint" />
          </mxGeometry>
        </mxCell>
        <mxCell id="2WSakZIg-niSuwnh4BM6-86" value="low" style="text;html=1;align=center;verticalAlign=middle;resizable=0;points=[];autosize=1;strokeColor=none;fillColor=none;fontSize=32;" vertex="1" parent="2WSakZIg-niSuwnh4BM6-73">
          <mxGeometry x="298" y="108" width="60" height="40" as="geometry" />
        </mxCell>
        <mxCell id="2WSakZIg-niSuwnh4BM6-87" value="hight" style="text;html=1;align=center;verticalAlign=middle;resizable=0;points=[];autosize=1;strokeColor=none;fillColor=none;fontSize=32;" vertex="1" parent="2WSakZIg-niSuwnh4BM6-73">
          <mxGeometry x="474" y="100" width="90" height="40" as="geometry" />
        </mxCell>
        <mxCell id="2WSakZIg-niSuwnh4BM6-88" value="" style="endArrow=classic;html=1;rounded=0;fontSize=32;strokeWidth=2;" edge="1" parent="2WSakZIg-niSuwnh4BM6-73">
          <mxGeometry width="50" height="50" relative="1" as="geometry">
            <mxPoint x="390" y="108" as="sourcePoint" />
            <mxPoint x="390" y="58" as="targetPoint" />
          </mxGeometry>
        </mxCell>
        <mxCell id="2WSakZIg-niSuwnh4BM6-89" value="N" style="text;html=1;strokeColor=none;fillColor=none;align=center;verticalAlign=middle;whiteSpace=wrap;rounded=0;fontSize=32;" vertex="1" parent="2WSakZIg-niSuwnh4BM6-73">
          <mxGeometry x="363" y="118" width="60" height="30" as="geometry" />
        </mxCell>
        <mxCell id="2WSakZIg-niSuwnh4BM6-91" value="" style="group" vertex="1" connectable="0" parent="1">
          <mxGeometry x="132" y="730" width="564" height="180" as="geometry" />
        </mxCell>
        <mxCell id="2WSakZIg-niSuwnh4BM6-102" value="" style="endArrow=classic;html=1;rounded=0;fontSize=32;strokeWidth=2;" edge="1" parent="2WSakZIg-niSuwnh4BM6-91">
          <mxGeometry width="50" height="50" relative="1" as="geometry">
            <mxPoint x="329" y="108" as="sourcePoint" />
            <mxPoint x="329" y="68" as="targetPoint" />
          </mxGeometry>
        </mxCell>
        <mxCell id="2WSakZIg-niSuwnh4BM6-103" value="" style="endArrow=classic;html=1;rounded=0;fontSize=32;strokeWidth=2;" edge="1" parent="2WSakZIg-niSuwnh4BM6-91">
          <mxGeometry width="50" height="50" relative="1" as="geometry">
            <mxPoint x="517" y="99" as="sourcePoint" />
            <mxPoint x="517" y="59" as="targetPoint" />
          </mxGeometry>
        </mxCell>
        <mxCell id="2WSakZIg-niSuwnh4BM6-104" value="low" style="text;html=1;align=center;verticalAlign=middle;resizable=0;points=[];autosize=1;strokeColor=none;fillColor=none;fontSize=32;" vertex="1" parent="2WSakZIg-niSuwnh4BM6-91">
          <mxGeometry x="298" y="108" width="60" height="40" as="geometry" />
        </mxCell>
        <mxCell id="2WSakZIg-niSuwnh4BM6-105" value="hight" style="text;html=1;align=center;verticalAlign=middle;resizable=0;points=[];autosize=1;strokeColor=none;fillColor=none;fontSize=32;" vertex="1" parent="2WSakZIg-niSuwnh4BM6-91">
          <mxGeometry x="474" y="100" width="90" height="40" as="geometry" />
        </mxCell>
        <mxCell id="2WSakZIg-niSuwnh4BM6-106" value="" style="endArrow=classic;html=1;rounded=0;fontSize=32;strokeWidth=2;" edge="1" parent="2WSakZIg-niSuwnh4BM6-91">
          <mxGeometry width="50" height="50" relative="1" as="geometry">
            <mxPoint x="390" y="108" as="sourcePoint" />
            <mxPoint x="390" y="58" as="targetPoint" />
          </mxGeometry>
        </mxCell>
        <mxCell id="2WSakZIg-niSuwnh4BM6-107" value="N" style="text;html=1;strokeColor=none;fillColor=none;align=center;verticalAlign=middle;whiteSpace=wrap;rounded=0;fontSize=32;" vertex="1" parent="2WSakZIg-niSuwnh4BM6-91">
          <mxGeometry x="363" y="118" width="60" height="30" as="geometry" />
        </mxCell>
        <mxCell id="2WSakZIg-niSuwnh4BM6-109" value="" style="shape=curlyBracket;whiteSpace=wrap;html=1;rounded=1;fontSize=32;strokeWidth=2;fillColor=none;rotation=-90;" vertex="1" parent="2WSakZIg-niSuwnh4BM6-91">
          <mxGeometry x="108" y="-40" width="20" height="220" as="geometry" />
        </mxCell>
        <mxCell id="2WSakZIg-niSuwnh4BM6-110" value="ignore" style="text;strokeColor=none;fillColor=none;html=1;fontSize=24;fontStyle=1;verticalAlign=middle;align=center;" vertex="1" parent="2WSakZIg-niSuwnh4BM6-91">
          <mxGeometry x="68" y="90" width="100" height="40" as="geometry" />
        </mxCell>
        <mxCell id="2WSakZIg-niSuwnh4BM6-111" value="&lt;font style=&quot;font-size: 11px&quot;&gt;low = mid + 1&lt;/font&gt;" style="text;strokeColor=none;fillColor=none;html=1;fontSize=24;fontStyle=1;verticalAlign=middle;align=center;" vertex="1" parent="2WSakZIg-niSuwnh4BM6-91">
          <mxGeometry x="232" y="70" width="100" height="40" as="geometry" />
        </mxCell>
      </root>
    </mxGraphModel>
  </diagram>
</mxfile>
